<?xml version="1.0" encoding="UTF-8" standalone="no"?>
<!DOCTYPE svg PUBLIC "-//W3C//DTD SVG 1.1//EN" "http://www.w3.org/Graphics/SVG/1.1/DTD/svg11.dtd">
<svg width="315.15" height="40.53" viewBox="0.00 0.00 1532.00 197.00" xmlns="http://www.w3.org/2000/svg" xmlns:xlink="http://www.w3.org/1999/xlink">
<g stroke-linecap="round" id="Lyndon_St._Luce_Copy_3">
<path d="M58.50,56.15 C58.50,87.50 58.53,136.10 59.69,142.42 C60.26,145.23 63.95,149.48 67.09,151.49 C69.60,153.05 75.20,154.84 77.67,155.15 C81.18,155.56 150.56,155.51 156.50,155.50" fill="none" stroke="rgb(229, 129, 76)" stroke-width="81.84" stroke-opacity="1.00" stroke-linejoin="round"/>
<path d="M1084.50,65.50 C1084.45,80.46 1084.42,122.58 1084.81,125.72 C1084.87,126.26 1085.34,132.98 1085.50,133.50 C1085.61,133.87 1087.38,136.89 1087.50,137.50 C1087.58,137.87 1087.23,140.67 1087.50,141.50 C1088.33,143.96 1092.77,148.87 1095.50,150.50 C1099.85,152.98 1106.49,155.04 1111.50,155.50 C1113.04,155.64 1179.85,155.51 1182.50,155.50" fill="none" stroke="rgb(229, 129, 76)" stroke-width="81.84" stroke-opacity="1.00" stroke-linejoin="round"/>
<path d="M775.50,155.50 C789.46,155.49 818.81,155.54 834.19,155.59 C838.79,155.53 844.23,155.25 846.61,154.63 C848.10,154.20 850.30,152.71 851.68,151.19 C853.01,149.67 853.83,147.68 853.75,146.38 C853.39,143.62 853.66,138.13 853.41,137.36 C853.32,137.09 821.28,92.28 820.27,90.29 C819.76,89.21 818.74,87.07 817.78,85.23 C816.62,83.02 816.67,81.15 816.50,80.50 C816.33,79.78 815.38,78.08 815.61,76.66 C815.83,75.39 816.22,72.74 816.30,72.44 C816.71,71.17 818.49,69.69 820.78,68.77 C824.24,67.42 829.44,66.61 835.50,66.50 C851.71,66.49 880.71,66.49 893.50,66.50" fill="none" stroke="rgb(229, 129, 76)" stroke-width="81.84" stroke-opacity="1.00" stroke-linejoin="round"/>
<path d="M475.50,95.50 C475.50,110.10 475.51,135.07 475.50,135.50 C475.35,140.19 474.70,142.59 472.41,147.85 C471.26,150.40 469.63,152.73 468.02,154.03 C465.89,155.70 460.10,157.71 458.00,158.07 C455.30,158.52 437.17,158.58 428.95,158.56 C417.32,158.45 406.73,157.57 402.86,155.89 C400.42,154.78 396.60,149.95 395.59,147.77 C394.29,144.89 392.86,138.47 392.82,136.73 C392.81,135.39 394.39,129.01 395.07,127.24 C396.21,124.39 401.10,119.69 404.50,118.18 C406.65,117.26 411.85,116.25 416.50,115.50 C422.46,114.64 446.32,115.46 447.50,115.50" fill="none" stroke="rgb(229, 129, 76)" stroke-width="81.84" stroke-opacity="1.00" stroke-linejoin="round"/>
<path d="M920.50,96.50 C920.51,111.28 920.49,132.70 920.46,139.36 C920.46,142.15 922.08,147.00 924.08,150.15 C925.52,152.33 927.32,154.58 928.50,155.50 C930.33,156.88 938.53,159.09 938.79,159.14 C941.39,159.58 971.24,159.50 972.50,159.50" fill="none" stroke="rgb(229, 129, 76)" stroke-width="81.84" stroke-opacity="1.00" stroke-linejoin="round"/>
<path d="M192.50,113.50 C198.13,122.50 211.10,148.64 212.56,151.79 C213.67,154.04 216.60,156.21 220.24,157.65 C224.52,159.32 231.60,161.63 234.50,161.12 C235.36,160.95 242.75,156.95 244.23,156.12" fill="none" stroke="rgb(229, 129, 76)" stroke-width="81.84" stroke-opacity="1.00" stroke-linejoin="round"/>
<path d="M267.50,113.50 C260.92,126.22 245.16,156.48 237.61,170.19 C234.87,174.93 230.61,181.46 228.25,183.61 C228.16,183.68 220.23,188.96 219.02,189.24 C218.36,189.39 217.16,189.39 215.42,189.24" fill="none" stroke="rgb(229, 129, 76)" stroke-width="81.84" stroke-opacity="1.00" stroke-linejoin="round"/>
<path d="M1213.50,114.50 C1213.48,117.58 1213.42,125.25 1213.40,129.84 C1213.44,136.03 1214.50,140.04 1214.50,140.50 C1214.51,141.01 1214.12,143.29 1214.50,144.50 C1215.04,146.18 1220.74,155.24 1222.68,156.09 C1223.26,156.32 1228.03,158.31 1230.50,158.50 C1231.17,158.54 1237.16,159.56 1243.26,159.64 C1257.29,159.63 1263.13,158.98 1268.50,157.50 C1270.78,156.85 1274.12,154.17 1276.54,150.55 C1278.24,147.96 1279.03,146.55 1279.23,145.60 C1280.68,138.15 1280.51,116.73 1280.50,115.50" fill="none" stroke="rgb(229, 129, 76)" stroke-width="81.84" stroke-opacity="1.00" stroke-linejoin="round"/>
<path d="M292.50,160.50 C292.52,153.50 292.52,137.31 292.34,133.93 C292.30,132.80 294.22,129.33 294.63,126.71 C294.84,125.50 295.98,123.80 297.49,122.50 C301.28,119.32 305.46,117.14 309.50,116.50 C316.72,115.46 347.12,115.52 350.78,116.12 C353.42,116.59 358.65,118.94 361.17,121.09 C363.66,123.28 367.30,130.32 367.50,131.50 C368.57,138.36 368.55,149.17 368.52,157.80 C368.51,158.70 368.51,159.60 368.50,160.50" fill="none" stroke="rgb(229, 129, 76)" stroke-width="81.84" stroke-opacity="1.00" stroke-linejoin="round"/>
<path d="M522.50,115.50 C523.00,115.46 544.00,115.40 552.44,115.42 C562.16,115.52 567.24,116.35 571.70,116.89 C573.69,117.18 575.29,117.82 576.57,118.85 C577.22,119.39 579.88,121.50 580.50,122.09 C584.86,126.31 585.31,133.86 585.50,134.50 C585.70,135.22 586.58,136.87 586.06,138.36 C585.39,140.26 585.69,144.53 584.54,146.67 C584.20,147.29 581.17,152.69 578.50,154.50 C577.25,155.33 570.21,157.63 568.21,158.02 C565.65,158.49 548.74,158.56 540.67,158.57 C531.26,158.52 517.89,158.12 513.50,156.67 C510.36,155.59 506.10,153.03 504.50,150.50 C503.58,148.99 501.28,143.05 501.35,139.39 C501.49,136.75 501.36,132.79 502.01,130.24 C503.01,126.61 506.13,122.26 509.91,119.27 C512.80,117.05 517.88,116.25 519.77,115.90 C521.03,115.68 521.94,115.55 522.50,115.50 Z" fill="none" stroke="rgb(229, 129, 76)" stroke-width="81.84" stroke-opacity="1.00" stroke-linejoin="round"/>
<path d="M609.50,160.50 C609.53,153.47 609.54,140.97 609.36,134.22 C609.34,132.95 611.06,126.59 612.50,124.50 C613.43,123.20 615.88,120.82 617.83,119.27 C619.54,117.94 622.09,116.79 624.04,116.47 C630.67,115.47 660.94,115.46 664.75,115.76 C667.78,116.01 672.81,117.45 675.42,119.09 C678.63,121.17 681.83,125.20 683.54,129.13 C685.07,132.90 685.52,135.62 685.52,140.62 C685.52,149.22 685.50,159.16 685.50,160.50" fill="none" stroke="rgb(229, 129, 76)" stroke-width="81.84" stroke-opacity="1.00" stroke-linejoin="round"/>
<path d="M1436.72,143.98 C1442.39,140.41 1456.72,131.33 1462.15,127.00 C1466.45,123.55 1470.64,118.95 1470.13,117.62 C1469.80,116.98 1467.75,116.27 1466.09,116.21 C1465.51,116.19 1420.12,116.42 1419.50,116.50 C1418.56,116.62 1412.98,117.64 1410.55,118.93 C1408.34,120.13 1405.62,121.37 1405.50,121.50 C1405.01,122.06 1403.50,124.50 1402.50,125.50 C1402.25,125.86 1400.75,132.62 1399.77,135.84 C1399.31,137.42 1400.53,141.48 1400.50,143.50 C1400.50,145.51 1403.05,150.51 1405.50,153.50 C1407.22,155.54 1411.36,157.55 1413.61,157.94 C1420.72,159.18 1431.56,159.68 1442.59,159.61 C1454.05,159.55 1469.50,159.50 1473.50,159.50" fill="none" stroke="rgb(229, 129, 76)" stroke-width="81.84" stroke-opacity="1.00" stroke-linejoin="round"/>
<path d="M919.68,117.69 C919.68,117.69 963.50,117.50 963.50,117.50" fill="none" stroke="rgb(229, 129, 76)" stroke-width="81.84" stroke-opacity="1.00" stroke-linejoin="round"/>
<path d="M1376.50,159.50 C1361.29,159.53 1324.12,159.51 1318.50,158.50 C1314.05,157.55 1310.74,156.10 1308.56,153.49 C1306.53,150.97 1303.08,145.08 1302.62,142.45 C1302.40,141.08 1302.65,134.10 1303.50,131.50 C1304.11,129.70 1307.57,123.00 1309.52,121.58 C1309.78,121.39 1312.36,120.08 1313.67,119.35 C1314.66,118.81 1319.50,118.00 1321.50,117.50 C1322.68,117.38 1365.54,117.47 1376.50,117.50" fill="none" stroke="rgb(229, 129, 76)" stroke-width="81.84" stroke-opacity="1.00" stroke-linejoin="round"/>
<path d="M993.50,157.50 C993.50,157.50 993.50,160.50 993.50,160.50" fill="none" stroke="rgb(229, 129, 76)" stroke-width="81.84" stroke-opacity="1.00" stroke-linejoin="round"/>
</g>
<g stroke-linecap="round" id="Lyndon_St._Luce_Copy_2">
<path d="M46.50,49.15 C46.50,80.50 46.53,129.10 47.69,135.42 C48.26,138.23 51.95,142.48 55.09,144.49 C57.60,146.05 63.20,147.84 65.67,148.15 C69.18,148.56 138.56,148.51 144.50,148.50" fill="none" stroke="rgb(95, 211, 113)" stroke-width="81.84" stroke-opacity="1.00" stroke-linejoin="round"/>
<path d="M1072.50,58.50 C1072.45,73.46 1072.42,115.58 1072.81,118.72 C1072.87,119.26 1073.34,125.98 1073.50,126.50 C1073.61,126.87 1075.38,129.89 1075.50,130.50 C1075.58,130.87 1075.23,133.67 1075.50,134.50 C1076.33,136.96 1080.77,141.87 1083.50,143.50 C1087.85,145.98 1094.49,148.04 1099.50,148.50 C1101.04,148.64 1167.85,148.51 1170.50,148.50" fill="none" stroke="rgb(95, 211, 113)" stroke-width="81.84" stroke-opacity="1.00" stroke-linejoin="round"/>
<path d="M763.50,148.50 C777.46,148.49 806.81,148.54 822.19,148.59 C826.79,148.53 832.23,148.25 834.61,147.63 C836.10,147.20 838.30,145.71 839.68,144.19 C841.01,142.67 841.83,140.68 841.75,139.38 C841.39,136.62 841.66,131.13 841.41,130.36 C841.32,130.09 809.28,85.28 808.27,83.29 C807.76,82.21 806.74,80.07 805.78,78.23 C804.62,76.02 804.67,74.15 804.50,73.50 C804.33,72.78 803.38,71.08 803.61,69.66 C803.83,68.39 804.22,65.74 804.30,65.44 C804.71,64.17 806.49,62.69 808.78,61.77 C812.24,60.42 817.44,59.61 823.50,59.50 C839.71,59.49 868.71,59.49 881.50,59.50" fill="none" stroke="rgb(95, 211, 113)" stroke-width="81.84" stroke-opacity="1.00" stroke-linejoin="round"/>
<path d="M463.50,88.50 C463.50,103.10 463.51,128.07 463.50,128.50 C463.35,133.19 462.70,135.59 460.41,140.85 C459.26,143.40 457.63,145.73 456.02,147.03 C453.89,148.70 448.10,150.71 446.00,151.07 C443.30,151.52 425.17,151.58 416.95,151.56 C405.32,151.45 394.73,150.57 390.86,148.89 C388.42,147.78 384.60,142.95 383.59,140.77 C382.29,137.89 380.86,131.47 380.82,129.73 C380.81,128.39 382.39,122.01 383.07,120.24 C384.21,117.39 389.10,112.69 392.50,111.18 C394.65,110.26 399.85,109.25 404.50,108.50 C410.46,107.64 434.32,108.46 435.50,108.50" fill="none" stroke="rgb(95, 211, 113)" stroke-width="81.84" stroke-opacity="1.00" stroke-linejoin="round"/>
<path d="M908.50,89.50 C908.51,104.28 908.49,125.70 908.46,132.36 C908.46,135.15 910.08,140.00 912.08,143.15 C913.52,145.33 915.32,147.58 916.50,148.50 C918.33,149.88 926.53,152.09 926.79,152.14 C929.39,152.58 959.24,152.50 960.50,152.50" fill="none" stroke="rgb(95, 211, 113)" stroke-width="81.84" stroke-opacity="1.00" stroke-linejoin="round"/>
<path d="M180.50,106.50 C186.13,115.50 199.10,141.64 200.56,144.79 C201.67,147.04 204.60,149.21 208.24,150.65 C212.52,152.32 219.60,154.63 222.50,154.12 C223.36,153.95 230.75,149.95 232.23,149.12" fill="none" stroke="rgb(95, 211, 113)" stroke-width="81.84" stroke-opacity="1.00" stroke-linejoin="round"/>
<path d="M255.50,106.50 C248.92,119.22 233.16,149.48 225.61,163.19 C222.87,167.93 218.61,174.46 216.25,176.61 C216.16,176.68 208.23,181.96 207.02,182.24 C206.36,182.39 205.16,182.39 203.42,182.24" fill="none" stroke="rgb(95, 211, 113)" stroke-width="81.84" stroke-opacity="1.00" stroke-linejoin="round"/>
<path d="M1201.50,107.50 C1201.48,110.58 1201.42,118.25 1201.40,122.84 C1201.44,129.03 1202.50,133.04 1202.50,133.50 C1202.51,134.01 1202.12,136.29 1202.50,137.50 C1203.04,139.18 1208.74,148.24 1210.68,149.09 C1211.26,149.32 1216.03,151.31 1218.50,151.50 C1219.17,151.54 1225.16,152.56 1231.26,152.64 C1245.29,152.63 1251.13,151.98 1256.50,150.50 C1258.78,149.85 1262.12,147.17 1264.54,143.55 C1266.24,140.96 1267.03,139.55 1267.23,138.60 C1268.68,131.15 1268.51,109.73 1268.50,108.50" fill="none" stroke="rgb(95, 211, 113)" stroke-width="81.84" stroke-opacity="1.00" stroke-linejoin="round"/>
<path d="M280.50,153.50 C280.52,146.50 280.52,130.31 280.34,126.93 C280.30,125.80 282.22,122.33 282.63,119.71 C282.84,118.50 283.98,116.80 285.49,115.50 C289.28,112.32 293.46,110.14 297.50,109.50 C304.72,108.46 335.12,108.52 338.78,109.12 C341.42,109.59 346.65,111.94 349.17,114.09 C351.66,116.28 355.30,123.32 355.50,124.50 C356.57,131.36 356.55,142.17 356.52,150.80 C356.51,151.70 356.51,152.60 356.50,153.50" fill="none" stroke="rgb(95, 211, 113)" stroke-width="81.84" stroke-opacity="1.00" stroke-linejoin="round"/>
<path d="M510.50,108.50 C511.00,108.46 532.00,108.40 540.44,108.42 C550.16,108.52 555.24,109.35 559.70,109.89 C561.69,110.18 563.29,110.82 564.57,111.85 C565.22,112.39 567.88,114.50 568.50,115.09 C572.86,119.31 573.31,126.86 573.50,127.50 C573.70,128.22 574.58,129.87 574.06,131.36 C573.39,133.26 573.69,137.53 572.54,139.67 C572.20,140.29 569.17,145.69 566.50,147.50 C565.25,148.33 558.21,150.63 556.21,151.02 C553.65,151.49 536.74,151.56 528.67,151.57 C519.26,151.52 505.89,151.12 501.50,149.67 C498.36,148.59 494.10,146.03 492.50,143.50 C491.58,141.99 489.28,136.05 489.35,132.39 C489.49,129.75 489.36,125.79 490.01,123.24 C491.01,119.61 494.13,115.26 497.91,112.27 C500.80,110.05 505.88,109.25 507.77,108.90 C509.03,108.68 509.94,108.55 510.50,108.50 Z" fill="none" stroke="rgb(95, 211, 113)" stroke-width="81.84" stroke-opacity="1.00" stroke-linejoin="round"/>
<path d="M597.50,153.50 C597.53,146.47 597.54,133.97 597.36,127.22 C597.34,125.95 599.06,119.59 600.50,117.50 C601.43,116.20 603.88,113.82 605.83,112.27 C607.54,110.94 610.09,109.79 612.04,109.47 C618.67,108.47 648.94,108.46 652.75,108.76 C655.78,109.01 660.81,110.45 663.42,112.09 C666.63,114.17 669.83,118.20 671.54,122.13 C673.07,125.90 673.52,128.62 673.52,133.62 C673.52,142.22 673.50,152.16 673.50,153.50" fill="none" stroke="rgb(95, 211, 113)" stroke-width="81.84" stroke-opacity="1.00" stroke-linejoin="round"/>
<path d="M1424.72,136.98 C1430.39,133.41 1444.72,124.33 1450.15,120.00 C1454.45,116.55 1458.64,111.95 1458.13,110.62 C1457.80,109.98 1455.75,109.27 1454.09,109.21 C1453.51,109.19 1408.12,109.42 1407.50,109.50 C1406.56,109.62 1400.98,110.64 1398.55,111.93 C1396.34,113.13 1393.62,114.37 1393.50,114.50 C1393.01,115.06 1391.50,117.50 1390.50,118.50 C1390.25,118.86 1388.75,125.62 1387.77,128.84 C1387.31,130.42 1388.53,134.48 1388.50,136.50 C1388.50,138.51 1391.05,143.51 1393.50,146.50 C1395.22,148.54 1399.36,150.55 1401.61,150.94 C1408.72,152.18 1419.56,152.68 1430.59,152.61 C1442.05,152.55 1457.50,152.50 1461.50,152.50" fill="none" stroke="rgb(95, 211, 113)" stroke-width="81.84" stroke-opacity="1.00" stroke-linejoin="round"/>
<path d="M907.68,110.69 C907.68,110.69 951.50,110.50 951.50,110.50" fill="none" stroke="rgb(95, 211, 113)" stroke-width="81.84" stroke-opacity="1.00" stroke-linejoin="round"/>
<path d="M1364.50,152.50 C1349.29,152.53 1312.12,152.51 1306.50,151.50 C1302.05,150.55 1298.74,149.10 1296.56,146.49 C1294.53,143.97 1291.08,138.08 1290.62,135.45 C1290.40,134.08 1290.65,127.10 1291.50,124.50 C1292.11,122.70 1295.57,116.00 1297.52,114.58 C1297.78,114.39 1300.36,113.08 1301.67,112.35 C1302.66,111.81 1307.50,111.00 1309.50,110.50 C1310.68,110.38 1353.54,110.47 1364.50,110.50" fill="none" stroke="rgb(95, 211, 113)" stroke-width="81.84" stroke-opacity="1.00" stroke-linejoin="round"/>
<path d="M981.50,150.50 C981.50,150.50 981.50,153.50 981.50,153.50" fill="none" stroke="rgb(95, 211, 113)" stroke-width="81.84" stroke-opacity="1.00" stroke-linejoin="round"/>
</g>
<g stroke-linecap="round" id="Lyndon_St._Luce_Copy_4">
<path d="M53.50,51.15 C53.50,82.50 53.53,131.10 54.69,137.42 C55.26,140.23 58.95,144.48 62.09,146.49 C64.60,148.05 70.20,149.84 72.67,150.15 C76.18,150.56 145.56,150.51 151.50,150.50" fill="none" stroke="rgb(255, 255, 255)" stroke-width="81.84" stroke-opacity="1.00" stroke-linejoin="round"/>
<path d="M1079.50,60.50 C1079.45,75.46 1079.42,117.58 1079.81,120.72 C1079.87,121.26 1080.34,127.98 1080.50,128.50 C1080.61,128.87 1082.38,131.89 1082.50,132.50 C1082.58,132.87 1082.23,135.67 1082.50,136.50 C1083.33,138.96 1087.77,143.87 1090.50,145.50 C1094.85,147.98 1101.49,150.04 1106.50,150.50 C1108.04,150.64 1174.85,150.51 1177.50,150.50" fill="none" stroke="rgb(255, 255, 255)" stroke-width="81.84" stroke-opacity="1.00" stroke-linejoin="round"/>
<path d="M770.50,150.50 C784.46,150.49 813.81,150.54 829.19,150.59 C833.79,150.53 839.23,150.25 841.61,149.63 C843.10,149.20 845.30,147.71 846.68,146.19 C848.01,144.67 848.83,142.68 848.75,141.38 C848.39,138.62 848.66,133.13 848.41,132.36 C848.32,132.09 816.28,87.28 815.27,85.29 C814.76,84.21 813.74,82.07 812.78,80.23 C811.62,78.02 811.67,76.15 811.50,75.50 C811.33,74.78 810.38,73.08 810.61,71.66 C810.83,70.39 811.22,67.74 811.30,67.44 C811.71,66.17 813.49,64.69 815.78,63.77 C819.24,62.42 824.44,61.61 830.50,61.50 C846.71,61.49 875.71,61.49 888.50,61.50" fill="none" stroke="rgb(255, 255, 255)" stroke-width="81.84" stroke-opacity="1.00" stroke-linejoin="round"/>
<path d="M470.50,90.50 C470.50,105.10 470.51,130.07 470.50,130.50 C470.35,135.19 469.70,137.59 467.41,142.85 C466.26,145.40 464.63,147.73 463.02,149.03 C460.89,150.70 455.10,152.71 453.00,153.07 C450.30,153.52 432.17,153.58 423.95,153.56 C412.32,153.45 401.73,152.57 397.86,150.89 C395.42,149.78 391.60,144.95 390.59,142.77 C389.29,139.89 387.86,133.47 387.82,131.73 C387.81,130.39 389.39,124.01 390.07,122.24 C391.21,119.39 396.10,114.69 399.50,113.18 C401.65,112.26 406.85,111.25 411.50,110.50 C417.46,109.64 441.32,110.46 442.50,110.50" fill="none" stroke="rgb(255, 255, 255)" stroke-width="81.84" stroke-opacity="1.00" stroke-linejoin="round"/>
<path d="M915.50,91.50 C915.51,106.28 915.49,127.70 915.46,134.36 C915.46,137.15 917.08,142.00 919.08,145.15 C920.52,147.33 922.32,149.58 923.50,150.50 C925.33,151.88 933.53,154.09 933.79,154.14 C936.39,154.58 966.24,154.50 967.50,154.50" fill="none" stroke="rgb(255, 255, 255)" stroke-width="81.84" stroke-opacity="1.00" stroke-linejoin="round"/>
<path d="M187.50,108.50 C193.13,117.50 206.10,143.64 207.56,146.79 C208.67,149.04 211.60,151.21 215.24,152.65 C219.52,154.32 226.60,156.63 229.50,156.12 C230.36,155.95 237.75,151.95 239.23,151.12" fill="none" stroke="rgb(255, 255, 255)" stroke-width="81.84" stroke-opacity="1.00" stroke-linejoin="round"/>
<path d="M262.50,108.50 C255.92,121.22 240.16,151.48 232.61,165.19 C229.87,169.93 225.61,176.46 223.25,178.61 C223.16,178.68 215.23,183.96 214.02,184.24 C213.36,184.39 212.16,184.39 210.42,184.24" fill="none" stroke="rgb(255, 255, 255)" stroke-width="81.84" stroke-opacity="1.00" stroke-linejoin="round"/>
<path d="M1208.50,109.50 C1208.48,112.58 1208.42,120.25 1208.40,124.84 C1208.44,131.03 1209.50,135.04 1209.50,135.50 C1209.51,136.01 1209.12,138.29 1209.50,139.50 C1210.04,141.18 1215.74,150.24 1217.68,151.09 C1218.26,151.32 1223.03,153.31 1225.50,153.50 C1226.17,153.54 1232.16,154.56 1238.26,154.64 C1252.29,154.63 1258.13,153.98 1263.50,152.50 C1265.78,151.85 1269.12,149.17 1271.54,145.55 C1273.24,142.96 1274.03,141.55 1274.23,140.60 C1275.68,133.15 1275.51,111.73 1275.50,110.50" fill="none" stroke="rgb(255, 255, 255)" stroke-width="81.84" stroke-opacity="1.00" stroke-linejoin="round"/>
<path d="M287.50,155.50 C287.52,148.50 287.52,132.31 287.34,128.93 C287.30,127.80 289.22,124.33 289.63,121.71 C289.84,120.50 290.98,118.80 292.49,117.50 C296.28,114.32 300.46,112.14 304.50,111.50 C311.72,110.46 342.12,110.52 345.78,111.12 C348.42,111.59 353.65,113.94 356.17,116.09 C358.66,118.28 362.30,125.32 362.50,126.50 C363.57,133.36 363.55,144.17 363.52,152.80 C363.51,153.70 363.51,154.60 363.50,155.50" fill="none" stroke="rgb(255, 255, 255)" stroke-width="81.84" stroke-opacity="1.00" stroke-linejoin="round"/>
<path d="M517.50,110.50 C518.00,110.46 539.00,110.40 547.44,110.42 C557.16,110.52 562.24,111.35 566.70,111.89 C568.69,112.18 570.29,112.82 571.57,113.85 C572.22,114.39 574.88,116.50 575.50,117.09 C579.86,121.31 580.31,128.86 580.50,129.50 C580.70,130.22 581.58,131.87 581.06,133.36 C580.39,135.26 580.69,139.53 579.54,141.67 C579.20,142.29 576.17,147.69 573.50,149.50 C572.25,150.33 565.21,152.63 563.21,153.02 C560.65,153.49 543.74,153.56 535.67,153.57 C526.26,153.52 512.89,153.12 508.50,151.67 C505.36,150.59 501.10,148.03 499.50,145.50 C498.58,143.99 496.28,138.05 496.35,134.39 C496.49,131.75 496.36,127.79 497.01,125.24 C498.01,121.61 501.13,117.26 504.91,114.27 C507.80,112.05 512.88,111.25 514.77,110.90 C516.03,110.68 516.94,110.55 517.50,110.50 Z" fill="none" stroke="rgb(255, 255, 255)" stroke-width="81.84" stroke-opacity="1.00" stroke-linejoin="round"/>
<path d="M604.50,155.50 C604.53,148.47 604.54,135.97 604.36,129.22 C604.34,127.95 606.06,121.59 607.50,119.50 C608.43,118.20 610.88,115.82 612.83,114.27 C614.54,112.94 617.09,111.79 619.04,111.47 C625.67,110.47 655.94,110.46 659.75,110.76 C662.78,111.01 667.81,112.45 670.42,114.09 C673.63,116.17 676.83,120.20 678.54,124.13 C680.07,127.90 680.52,130.62 680.52,135.62 C680.52,144.22 680.50,154.16 680.50,155.50" fill="none" stroke="rgb(255, 255, 255)" stroke-width="81.84" stroke-opacity="1.00" stroke-linejoin="round"/>
<path d="M1431.72,138.98 C1437.39,135.41 1451.72,126.33 1457.15,122.00 C1461.45,118.55 1465.64,113.95 1465.13,112.62 C1464.80,111.98 1462.75,111.27 1461.09,111.21 C1460.51,111.19 1415.12,111.42 1414.50,111.50 C1413.56,111.62 1407.98,112.64 1405.55,113.93 C1403.34,115.13 1400.62,116.37 1400.50,116.50 C1400.01,117.06 1398.50,119.50 1397.50,120.50 C1397.25,120.86 1395.75,127.62 1394.77,130.84 C1394.31,132.42 1395.53,136.48 1395.50,138.50 C1395.50,140.51 1398.05,145.51 1400.50,148.50 C1402.22,150.54 1406.36,152.55 1408.61,152.94 C1415.72,154.18 1426.56,154.68 1437.59,154.61 C1449.05,154.55 1464.50,154.50 1468.50,154.50" fill="none" stroke="rgb(255, 255, 255)" stroke-width="81.84" stroke-opacity="1.00" stroke-linejoin="round"/>
<path d="M914.68,112.69 C914.68,112.69 958.50,112.50 958.50,112.50" fill="none" stroke="rgb(255, 255, 255)" stroke-width="81.84" stroke-opacity="1.00" stroke-linejoin="round"/>
<path d="M1371.50,154.50 C1356.29,154.53 1319.12,154.51 1313.50,153.50 C1309.05,152.55 1305.74,151.10 1303.56,148.49 C1301.53,145.97 1298.08,140.08 1297.62,137.45 C1297.40,136.08 1297.65,129.10 1298.50,126.50 C1299.11,124.70 1302.57,118.00 1304.52,116.58 C1304.78,116.39 1307.36,115.08 1308.67,114.35 C1309.66,113.81 1314.50,113.00 1316.50,112.50 C1317.68,112.38 1360.54,112.47 1371.50,112.50" fill="none" stroke="rgb(255, 255, 255)" stroke-width="81.84" stroke-opacity="1.00" stroke-linejoin="round"/>
<path d="M988.50,152.50 C988.50,152.50 988.50,155.50 988.50,155.50" fill="none" stroke="rgb(255, 255, 255)" stroke-width="81.84" stroke-opacity="1.00" stroke-linejoin="round"/>
</g>
</svg>
